<?xml version="1.0" encoding="iso-8859-1"?>
<!-- Uploaded to: SVG Repo, www.svgrepo.com, Generator: SVG Repo Mixer Tools -->
<svg fill="#000000" version="1.1" id="Layer_1" xmlns="http://www.w3.org/2000/svg" xmlns:xlink="http://www.w3.org/1999/xlink" 
	 viewBox="0 0 512 512" xml:space="preserve">
<g>
	<g>
		<rect x="256" y="77.392" width="256" height="16"/>
	</g>
</g>
<g>
	<g>
		<rect x="256" y="162.72" width="213.328" height="16"/>
	</g>
</g>
<g>
	<g>
		<rect y="333.392" width="256" height="16"/>
	</g>
</g>
<g>
	<g>
		<rect x="42.672" y="418.72" width="213.328" height="16"/>
	</g>
</g>
<g>
	<g>
		<path d="M0,64.048v192h192v-192H0z M176,240.048H16v-160h160V240.048z"/>
	</g>
</g>
<g>
	<g>
		<circle cx="96.96" cy="136.352" r="21.376"/>
	</g>
</g>
<g>
	<g>
		<path d="M120.624,172.464l-23.616,17.808l-23.616-17.808c-29.072,8.72-28.704,38.16-28.704,38.16h52.336h52.304
			C149.328,210.624,149.696,181.184,120.624,172.464z"/>
	</g>
</g>
<g>
	<g>
		<path d="M320,255.952v192h192v-192H320z M496,431.952H336v-160h160V431.952z"/>
	</g>
</g>
<g>
	<g>
		<polygon points="454.256,324.992 442.944,313.68 416,340.624 389.056,313.68 377.744,324.992 404.688,351.936 377.744,378.896 
			389.056,390.208 416,363.264 442.944,390.208 454.256,378.896 427.312,351.936 		"/>
	</g>
</g>
</svg>