<?xml version="1.0" encoding="iso-8859-1"?>
<!-- Uploaded to: SVG Repo, www.svgrepo.com, Generator: SVG Repo Mixer Tools -->
<!DOCTYPE svg PUBLIC "-//W3C//DTD SVG 1.1//EN" "http://www.w3.org/Graphics/SVG/1.1/DTD/svg11.dtd">
<svg fill="#000000" height="800px" width="800px" version="1.1" id="Capa_1" xmlns="http://www.w3.org/2000/svg" xmlns:xlink="http://www.w3.org/1999/xlink" 
	 viewBox="0 0 500.191 500.191" xml:space="preserve">
<g>
	<path d="M271.597,181.727c-3.565-8.251-8.979-13.583-21.816-13.583c0,0-59.844,0-79.792,0c-8.059,0-17.395,5.332-20.96,13.583
		l-43.394,100.348c-2.388,5.52-2.482,11.638-0.267,17.229c2.215,5.591,6.474,9.983,11.992,12.369
		c2.85,1.231,5.854,1.855,8.928,1.855c8.99,0,17.105-5.331,20.671-13.583l7.9-18.27v191.473c0,13.671,11.122,24.792,24.793,24.792
		c13.672,0,24.794-11.121,24.794-24.792V344.865h10.937v130.534c0,13.671,11.121,24.792,24.792,24.792
		c13.672,0,24.794-11.121,24.794-24.792l-0.421-196.542l9.119,21.089c3.567,8.252,11.682,13.583,20.672,13.583
		c3.075,0,6.078-0.624,8.926-1.855c5.519-2.386,9.778-6.778,11.993-12.369c2.216-5.591,2.121-11.71-0.266-17.229L271.597,181.727z"
		/>
	<path d="M207.489,159.893c31.281,0,56.73-25.455,56.73-56.743c0-31.287-25.448-56.741-56.73-56.741
		c-31.287,0-56.741,25.454-56.741,56.741C150.748,134.438,176.202,159.893,207.489,159.893z"/>
	<path d="M263.608,71.753l7.489,0.869c0.972,3.171,2.259,6.227,3.831,9.1l-4.726,5.965c-1.981,2.499-1.778,6.102,0.475,8.384
		l8.858,8.857c1.191,1.19,2.772,1.847,4.454,1.847c1.417,0,2.813-0.487,3.929-1.371l5.916-4.684
		c3.016,1.679,6.207,3.029,9.506,4.022l0.889,7.635c0.374,3.185,3.066,5.586,6.264,5.586h12.534c3.195,0,5.888-2.401,6.263-5.587
		l0.846-7.325c3.551-0.979,6.995-2.371,10.258-4.145l5.711,4.519c1.111,0.879,2.502,1.363,3.917,1.363
		c1.681,0,3.266-0.651,4.468-1.839l8.858-8.859c2.264-2.265,2.468-5.868,0.476-8.38l-4.432-5.624
		c1.811-3.233,3.229-6.617,4.22-10.076l6.806-0.782c3.185-0.375,5.588-3.068,5.588-6.264l-0.001-12.533
		c0-3.197-2.401-5.889-5.586-6.262l-6.696-0.782c-0.95-3.414-2.308-6.754-4.042-9.945l4.121-5.208
		c1.98-2.499,1.778-6.101-0.474-8.382l-8.839-8.838c-1.191-1.19-2.773-1.847-4.454-1.847c-1.417,0-2.813,0.487-3.929,1.372
		l-5.029,3.987c-3.3-1.878-6.833-3.358-10.521-4.408l-0.76-6.531C329.42,2.402,326.727,0,323.53,0h-12.533
		c-3.198,0-5.89,2.401-6.262,5.586l-0.762,6.531c-3.781,1.071-7.415,2.606-10.818,4.572l-5.235-4.15
		c-1.11-0.88-2.5-1.365-3.915-1.365c-1.68,0-3.266,0.651-4.47,1.838l-8.857,8.861c-2.263,2.264-2.468,5.867-0.477,8.382l4.418,5.588
		c-1.711,3.196-3.043,6.569-3.968,10.047l-7.045,0.805c-3.185,0.373-5.586,3.064-5.586,6.262l-0.002,12.534
		C258.022,68.686,260.424,71.378,263.608,71.753z M297.557,58.519c0-10.872,8.846-19.718,19.718-19.718
		c5.256,0,10.205,2.055,13.935,5.784c3.73,3.73,5.785,8.68,5.784,13.936c0.001,5.255-2.054,10.203-5.783,13.934
		c-3.73,3.73-8.679,5.784-13.934,5.784c-5.256,0-10.205-2.055-13.935-5.784C299.61,68.724,297.556,63.774,297.557,58.519z"/>
	<path d="M393.932,147.959l-4.032-1.746c0.047-2.311-0.174-4.65-0.656-6.968l3.553-2.478c1.706-1.188,2.256-3.474,1.277-5.321
		l-3.856-7.178c-0.718-1.336-2.103-2.166-3.617-2.166c-0.523,0-1.037,0.099-1.526,0.294l-3.89,1.543
		c-1.709-1.793-3.637-3.381-5.741-4.729l0.753-4.221c0.364-2.059-0.865-4.064-2.861-4.667l-7.825-2.353
		c-0.385-0.116-0.783-0.175-1.184-0.175c-1.64,0-3.121,0.976-3.774,2.486l-1.703,3.934c-2.549-0.024-5.118,0.236-7.614,0.822
		l-2.488-3.575c-0.769-1.104-2.033-1.764-3.381-1.764c-0.672,0-1.343,0.166-1.942,0.484l-7.194,3.868
		c-1.841,0.986-2.646,3.198-1.873,5.144l1.707,4.317c-1.671,1.677-3.137,3.532-4.365,5.527l-4.548-0.821
		c-2.104-0.377-4.068,0.88-4.665,2.858l-2.356,7.825c-0.599,1.997,0.395,4.13,2.313,4.962l4.514,1.949
		c0.011,2.162,0.239,4.311,0.682,6.402l-4.072,2.835c-1.705,1.188-2.256,3.474-1.278,5.322l3.867,7.195
		c0.718,1.335,2.104,2.165,3.619,2.165c0.522,0,1.035-0.099,1.524-0.293l4.573-1.813c1.565,1.612,3.304,3.056,5.18,4.298
		l-0.881,4.934c-0.364,2.058,0.866,4.063,2.862,4.666l7.823,2.354c0.385,0.116,0.783,0.175,1.184,0.175
		c1.639,0,3.122-0.976,3.778-2.486l1.904-4.413c2.408,0.052,4.817-0.166,7.183-0.661l2.717,3.893
		c0.77,1.105,2.034,1.764,3.383,1.764c0.672,0,1.342-0.167,1.941-0.484l7.194-3.868c1.84-0.987,2.645-3.198,1.872-5.143l-1.71-4.343
		c1.735-1.674,3.256-3.52,4.527-5.497l4.396,0.79c2.081,0.367,4.078-0.91,4.667-2.86l2.354-7.824
		C396.845,150.923,395.851,148.79,393.932,147.959z M370.742,149.392c-1.62,5.388-6.686,9.15-12.319,9.15
		c-1.248,0-2.491-0.184-3.696-0.547c-3.281-0.987-5.984-3.199-7.612-6.229c-1.628-3.03-1.98-6.507-0.992-9.788
		c1.621-5.389,6.688-9.152,12.323-9.152c1.246,0,2.488,0.184,3.691,0.546C368.925,135.417,372.785,142.604,370.742,149.392z"/>
</g>
</svg>